<svg xmlns="http://www.w3.org/2000/svg" width="219.788" height="74.06"><g data-name="Group 13573" clip-path="url(&quot;#a&quot;)"><path d="M6.665 55.085c0-.333.034-.657.052-.986.013-.298.023-.596.047-.898l.006-.067C8.111 36.488 26.145 14.09 26.145 14.09l.017.02c4.405 5.367 5.662 12.533 3.33 19l-1.134 3.151.172-.037c3.713-.79 6.787-3.288 8.227-6.682 4.147 7.114 8.041 15.638 8.712 23.262.094.749.157 1.506.157 2.28 0 1.783-.263 3.507-.744 5.142 4.583-4.693 7.41-11.098 7.41-18.163C52.292 16.01 26.145 0 26.145 0S0 16.01 0 42.064c0 7.065 2.827 13.47 7.41 18.163a18.165 18.165 0 0 1-.745-5.142" fill="#0053ff" fill-rule="evenodd" data-name="Path 77971"/><path d="M34.977 55.728a8.832 8.832 0 0 0-17.663 0c0 3.73 2.316 6.913 5.585 8.207L18.166 74.06h15.958l-4.732-10.125c3.269-1.294 5.585-4.477 5.585-8.207" fill="#fff" fill-rule="evenodd" data-name="Path 77972"/><path d="m62.796 55.195 6.492-1.363V10.394l-6.492-1.202V6.547h20.037v2.645l-6.493 1.202v18.754h23.002V10.394l-6.491-1.202V6.547h20.035v2.645l-6.491 1.202v43.438l6.491 1.363v2.644H92.851v-2.644l6.491-1.363V32.675H76.34v21.157l6.493 1.363v2.644H62.796v-2.644Z" fill="#fff" fill-rule="evenodd" data-name="Path 77973"/><path d="M146.943 54.073c-4.088 2.885-8.977 4.648-14.267 4.648-8.975 0-15.467-5.93-15.467-14.747 0-8.014 5.61-12.021 11.862-15.228-1.765-4.407-2.806-8.415-2.806-11.46 0-7.694 5.931-12.022 12.823-12.022 6.332 0 10.419 4.007 10.419 9.057 0 8.094-6.812 11.38-13.464 14.666 3.286 6.813 8.336 14.025 13.303 18.834 2.967-3.687 5.13-8.575 5.852-14.266l-7.053-1.523v-2.564h18.033v2.564l-7.373 1.523c-.803 6.171-3.448 11.861-7.214 16.27 2.645 2.163 5.209 3.446 7.454 3.446 2.804 0 4.327-1.763 4.888-4.087l2.245.561c-.481 5.29-3.927 8.976-8.416 8.976-3.526 0-7.293-1.763-10.82-4.648m-2.323-2.004c-5.61-5.29-10.74-12.904-14.106-20.116-4.008 2.404-6.973 5.45-6.973 10.498 0 5.69 3.847 12.343 12.182 12.343 3.126 0 6.171-.962 8.897-2.725m-9.94-26.047c5.772-2.805 10.66-5.77 10.66-11.541 0-3.847-2.965-6.01-6.17-6.01-3.927 0-6.973 2.724-6.973 7.774 0 2.644.962 6.01 2.484 9.777" fill="#fff" fill-rule="evenodd" data-name="Path 77974"/><path d="M175.309 57.759h-.722v.08h-4.97v-2.644l4.249-1.042 18.273-48.488h4.568l18.273 48.408 4.808 1.122v2.644h-18.673v-2.644l6.091-1.203-5.53-14.906h-17.31l-5.531 15.067 4.888 1.042v2.644h-8.414v-.08Zm10.338-22.2h14.667l-5.931-16.028-1.042-5.29h-.562l-1.201 5.29-5.93 16.028Z" fill="#fff" fill-rule="evenodd" data-name="Path 77975"/><path d="M64.551 71.897c.218.653.742 1.096 1.968 1.096 1.177 0 1.563-.385 1.563-.884 0-.53-.347-.847-1.92-1.107-2.322-.385-2.787-1.105-2.787-2.02 0-1.307 1.285-2 2.897-2 2.354 0 2.967 1.194 3.046 1.943h-1.464c-.119-.375-.365-.875-1.622-.875-.87 0-1.364.27-1.364.789 0 .452.287.692 1.691.932 2.61.452 3.025 1.222 3.025 2.193 0 1.144-.929 2.087-3.194 2.087-2.116 0-3.094-.923-3.312-2.154h1.473Z" fill="#fff" fill-rule="evenodd" data-name="Path 77976"/><path d="M78.473 70.954h-3.985v1.808h4.42l-.167 1.154h-5.716v-6.79h5.665v1.155h-4.202V69.8h3.985v1.154Z" fill="#fff" fill-rule="evenodd" data-name="Path 77977"/><path d="M88.875 71.81c-.356 1.183-1.296 2.25-3.421 2.25-2.433 0-3.659-1.644-3.659-3.53 0-1.884 1.345-3.548 3.738-3.548 2.097 0 3.125 1.125 3.352 2.25h-1.483c-.198-.49-.633-1.125-1.888-1.125-1.395 0-2.176 1.02-2.176 2.366s.731 2.472 2.185 2.472c1.098 0 1.562-.433 1.869-1.136h1.483Z" fill="#fff" fill-rule="evenodd" data-name="Path 77978"/><path d="M93.582 67.127v3.847c0 1.548.87 1.951 1.8 1.951 1.028 0 1.69-.442 1.69-1.951v-3.847h1.464v3.875c0 2.106-1.186 3.058-3.204 3.058-1.957 0-3.213-.895-3.213-3.01v-3.923h1.463Z" fill="#fff" fill-rule="evenodd" data-name="Path 77979"/><path d="M103.795 71.194v2.722h-1.453v-6.79h3.659c1.552 0 2.482.722 2.482 1.905 0 .856-.494 1.394-1.237 1.615.346.115 1.058.404 1.058 1.616v.317c0 .491-.01 1.029.08 1.337h-1.503c-.11-.298-.119-.74-.119-1.413v-.222c0-.788-.297-1.087-1.385-1.087h-1.582Zm0-1.086h1.86c.909 0 1.324-.318 1.324-.962 0-.606-.415-.933-1.294-.933h-1.89v1.895Z" fill="#fff" fill-rule="evenodd" data-name="Path 77980"/><path d="M111.992 67.127h1.464v6.789h-1.464v-6.79z" fill="#fff" fill-rule="evenodd" data-name="Rectangle 2718"/><path d="M119.062 68.27h-2.532v-1.143h6.517v1.144h-2.522v5.645h-1.463v-5.645Z" fill="#fff" fill-rule="evenodd" data-name="Path 77981"/><path d="M128.634 73.916v-2.48c0-.088-.02-.126-.08-.204l-2.896-4.105h1.74c.731 1.096 1.7 2.5 2.037 3.115.346-.616 1.325-2.02 2.046-3.115h1.613l-2.938 4.154a.26.26 0 0 0-.049.173v2.462h-1.473Z" fill="#fff" fill-rule="evenodd" data-name="Path 77982"/><path d="M141.319 71.897c.217.653.741 1.096 1.968 1.096 1.176 0 1.562-.385 1.562-.884 0-.53-.346-.847-1.919-1.107-2.323-.385-2.788-1.105-2.788-2.02 0-1.307 1.286-2 2.897-2 2.354 0 2.967 1.194 3.046 1.943h-1.464c-.118-.375-.365-.875-1.622-.875-.87 0-1.364.27-1.364.789 0 .452.287.692 1.692.932 2.61.452 3.024 1.222 3.024 2.193 0 1.144-.928 2.087-3.193 2.087-2.116 0-3.095-.923-3.312-2.154h1.473Z" fill="#fff" fill-rule="evenodd" data-name="Path 77983"/><path d="M156.843 70.492c0 1.895-1.304 3.568-3.787 3.568-2.323 0-3.698-1.577-3.698-3.558 0-1.875 1.434-3.52 3.757-3.52 2.373 0 3.728 1.654 3.728 3.51m-5.943-.01c0 1.337.753 2.443 2.236 2.443 1.502 0 2.155-1.182 2.155-2.414 0-1.269-.702-2.404-2.225-2.404-1.443 0-2.166 1.135-2.166 2.376" fill="#fff" fill-rule="evenodd" data-name="Path 77984"/><path d="M160.254 67.127h1.453v5.635h4.015l-.197 1.154h-5.27v-6.79Z" fill="#fff" fill-rule="evenodd" data-name="Path 77985"/><path d="M170.004 67.127v3.847c0 1.548.87 1.951 1.8 1.951 1.027 0 1.69-.442 1.69-1.951v-3.847h1.464v3.875c0 2.106-1.187 3.058-3.204 3.058-1.958 0-3.214-.895-3.214-3.01v-3.923h1.464Z" fill="#fff" fill-rule="evenodd" data-name="Path 77986"/><path d="M180.574 68.27h-2.532v-1.143h6.517v1.144h-2.522v5.645h-1.463v-5.645Z" fill="#fff" fill-rule="evenodd" data-name="Path 77987"/><path d="M187.643 67.127h1.464v6.789h-1.464v-6.79z" fill="#fff" fill-rule="evenodd" data-name="Rectangle 2719"/><path d="M200.072 70.492c0 1.895-1.305 3.568-3.787 3.568-2.324 0-3.698-1.577-3.698-3.558 0-1.875 1.434-3.52 3.757-3.52 2.373 0 3.728 1.654 3.728 3.51m-5.943-.01c0 1.337.752 2.443 2.236 2.443 1.502 0 2.155-1.182 2.155-2.414 0-1.269-.702-2.404-2.225-2.404-1.444 0-2.166 1.135-2.166 2.376" fill="#fff" fill-rule="evenodd" data-name="Path 77988"/><path d="M203.483 73.916v-6.79h1.731c1.839 2.655 3.095 4.28 3.52 5.05h.02c-.07-.77-.059-1.981-.059-3.088v-1.961h1.355v6.789h-1.633c-.78-1.125-3.184-4.597-3.629-5.376h-.019c.06.856.06 1.818.06 3.02v2.356h-1.346Z" fill="#fff" fill-rule="evenodd" data-name="Path 77989"/><path d="M214.755 71.897c.218.653.741 1.096 1.968 1.096 1.176 0 1.562-.385 1.562-.884 0-.53-.346-.847-1.919-1.107-2.323-.385-2.788-1.105-2.788-2.02 0-1.307 1.286-2 2.897-2 2.354 0 2.967 1.194 3.046 1.943h-1.464c-.118-.375-.365-.875-1.622-.875-.87 0-1.364.27-1.364.789 0 .452.287.692 1.692.932 2.609.452 3.024 1.222 3.024 2.193 0 1.144-.928 2.087-3.193 2.087-2.116 0-3.095-.923-3.312-2.154h1.473Z" fill="#fff" fill-rule="evenodd" data-name="Path 77990"/></g><defs><clipPath id="a"><path d="M0 0h219.788v74.06H0V0z" data-name="Rectangle 2720"/></clipPath></defs></svg>