<svg xmlns="http://www.w3.org/2000/svg" width="294.125" height="93.06"><g data-name="Group 14119" clip-path="url(&quot;#a&quot;)"><path d="M8.375 69.217c0-.418.043-.826.065-1.239.016-.375.029-.749.059-1.128l.008-.085c1.685-20.916 24.346-49.059 24.346-49.059l.021.024c5.535 6.745 7.114 15.75 4.185 23.876l-1.426 3.959.216-.046c4.666-.994 8.529-4.132 10.338-8.397 5.211 8.939 10.104 19.65 10.947 29.23.118.941.197 1.893.197 2.865 0 2.241-.33 4.407-.935 6.461 5.759-5.897 9.311-13.945 9.311-22.823C65.707 20.118 32.853 0 32.853 0S0 20.118 0 52.855c0 8.878 3.552 16.926 9.311 22.823a22.825 22.825 0 0 1-.936-6.461" fill="#fff" fill-rule="evenodd" data-name="Path 78529"/><path d="M43.95 70.025c0-6.128-4.969-11.097-11.097-11.097-6.129 0-11.097 4.969-11.097 11.097 0 4.687 2.91 8.686 7.018 10.313L22.827 93.06h20.052l-5.947-12.722c4.108-1.627 7.018-5.626 7.018-10.313" fill="#fff" fill-rule="evenodd" data-name="Path 78530"/><path d="m80.103 78.16 8.85-1.857V17.084l-8.85-1.638V11.84h27.315v3.606l-8.85 1.638v25.567h31.357V17.084l-8.85-1.638V11.84h27.315v3.606l-8.85 1.638v59.22l8.85 1.856v3.606h-27.315V78.16l8.85-1.857V47.458H98.568v28.845l8.85 1.857v3.606H80.103V78.16Z" fill="#fff" fill-rule="evenodd" data-name="Path 78531"/><path d="M194.817 76.63c-5.573 3.933-12.237 6.338-19.449 6.338-12.237 0-21.087-8.086-21.087-20.104 0-10.926 7.649-16.389 16.171-20.76-2.403-6.009-3.824-11.472-3.824-15.624 0-10.489 8.085-16.388 17.481-16.388 8.631 0 14.204 5.463 14.204 12.346 0 11.035-9.287 15.515-18.356 19.994 4.48 9.287 11.363 19.12 18.137 25.676 4.043-5.026 6.993-11.691 7.976-19.448l-9.615-2.076v-3.496h24.584v3.496l-10.052 2.076c-1.092 8.413-4.698 16.17-9.833 22.179 3.606 2.95 7.102 4.699 10.161 4.699 3.824 0 5.899-2.404 6.665-5.572l3.059.765c-.656 7.21-5.354 12.237-11.472 12.237-4.807 0-9.943-2.405-14.75-6.338m-3.169-2.731c-7.648-7.211-14.641-17.591-19.229-27.424-5.463 3.278-9.505 7.43-9.505 14.313 0 7.757 5.244 16.826 16.607 16.826 4.261 0 8.412-1.312 12.127-3.715M178.1 38.39c7.867-3.824 14.532-7.867 14.532-15.733 0-5.245-4.043-8.195-8.414-8.195-5.353 0-9.505 3.715-9.505 10.598 0 3.606 1.312 8.195 3.387 13.33" fill="#fff" fill-rule="evenodd" data-name="Path 78532"/><path d="M233.487 81.656h-.984v.11h-6.775V78.16l5.792-1.42 24.91-66.102h6.228l24.912 65.993 6.555 1.529v3.606h-25.458V78.16l8.304-1.639-7.539-20.322h-23.599l-7.539 20.541 6.664 1.42v3.606h-11.471v-.11Zm14.094-30.264h19.994L259.49 29.54l-1.42-7.211h-.766l-1.638 7.211-8.085 21.852Z" fill="#fff" fill-rule="evenodd" data-name="Path 78533"/></g><defs><clipPath id="a"><path d="M0 0h294.125v93.06H0V0z" data-name="Rectangle 2723"/></clipPath></defs></svg>